HIERARCHY
ROOT mixamorig:Hips
{
	OFFSET -0.000008 104.274872 1.554316
	CHANNELS 6 Xposition Yposition Zposition Xrotation Yrotation Zrotation
	JOINT mixamorig:Spine
	{
		OFFSET -0.000005 10.181595 0.131519
		CHANNELS 6 Xposition Yposition Zposition Xrotation Yrotation Zrotation
		JOINT mixamorig:Spine1
		{
			OFFSET -0.000000 9.893959 -1.470707
			CHANNELS 6 Xposition Yposition Zposition Xrotation Yrotation Zrotation
			JOINT mixamorig:Spine2
			{
				OFFSET -0.000000 9.220757 -1.370641
				CHANNELS 6 Xposition Yposition Zposition Xrotation Yrotation Zrotation
				JOINT mixamorig:Neck
				{
					OFFSET 0.000001 16.740417 -2.049036
					CHANNELS 6 Xposition Yposition Zposition Xrotation Yrotation Zrotation
					JOINT mixamorig:Head
					{
						OFFSET 0.000000 9.617874 1.685006
						CHANNELS 6 Xposition Yposition Zposition Xrotation Yrotation Zrotation
						JOINT mixamorig:HeadTop_End
						{
							OFFSET 0.000002 22.037354 7.501101
							CHANNELS 6 Xposition Yposition Zposition Xrotation Yrotation Zrotation
							End Site
							{
								OFFSET 0.000168 2310.654297 -282.823242
							}
						}
					}
				}
				JOINT mixamorig:RightShoulder
				{
					OFFSET -4.569970 11.014908 -2.160885
					CHANNELS 6 Xposition Yposition Zposition Xrotation Yrotation Zrotation
					JOINT mixamorig:RightArm
					{
						OFFSET -10.592851 -0.524811 -2.232101
						CHANNELS 6 Xposition Yposition Zposition Xrotation Yrotation Zrotation
						JOINT mixamorig:RightForeArm
						{
							OFFSET -27.841511 0.000031 -0.000004
							CHANNELS 6 Xposition Yposition Zposition Xrotation Yrotation Zrotation
							JOINT mixamorig:RightHand
							{
								OFFSET -28.328831 -0.000015 0.000015
								CHANNELS 6 Xposition Yposition Zposition Xrotation Yrotation Zrotation
								JOINT mixamorig:RightHandThumb1
								{
									OFFSET -2.464806 -1.573990 2.681852
									CHANNELS 6 Xposition Yposition Zposition Xrotation Yrotation Zrotation
									JOINT mixamorig:RightHandThumb2
									{
										OFFSET -3.215179 -1.872803 1.924282
										CHANNELS 6 Xposition Yposition Zposition Xrotation Yrotation Zrotation
										JOINT mixamorig:RightHandThumb3
										{
											OFFSET -2.654831 -1.527969 1.512609
											CHANNELS 6 Xposition Yposition Zposition Xrotation Yrotation Zrotation
											JOINT mixamorig:RightHandThumb4
											{
												OFFSET -2.018814 -1.152008 1.108052
												CHANNELS 6 Xposition Yposition Zposition Xrotation Yrotation Zrotation
												End Site
												{
													OFFSET -188.809540 -114.533607 132.431396
												}
											}
										}
									}
								}
								JOINT mixamorig:RightHandIndex1
								{
									OFFSET -9.108284 -0.517868 2.259835
									CHANNELS 6 Xposition Yposition Zposition Xrotation Yrotation Zrotation
									JOINT mixamorig:RightHandIndex2
									{
										OFFSET -3.699989 0.000000 0.001215
										CHANNELS 6 Xposition Yposition Zposition Xrotation Yrotation Zrotation
										JOINT mixamorig:RightHandIndex3
										{
											OFFSET -2.850006 0.000031 -0.000522
											CHANNELS 6 Xposition Yposition Zposition Xrotation Yrotation Zrotation
											JOINT mixamorig:RightHandIndex4
											{
												OFFSET -2.772186 -0.000015 -0.000020
												CHANNELS 6 Xposition Yposition Zposition Xrotation Yrotation Zrotation
												End Site
												{
													OFFSET -277.218445 0.000000 -0.050231
												}
											}
										}
									}
								}
								JOINT mixamorig:RightHandMiddle1
								{
									OFFSET -9.532516 -0.000031 -0.000023
									CHANNELS 6 Xposition Yposition Zposition Xrotation Yrotation Zrotation
									JOINT mixamorig:RightHandMiddle2
									{
										OFFSET -3.700005 -0.000015 0.003713
										CHANNELS 6 Xposition Yposition Zposition Xrotation Yrotation Zrotation
										JOINT mixamorig:RightHandMiddle3
										{
											OFFSET -2.949974 0.000015 -0.002054
											CHANNELS 6 Xposition Yposition Zposition Xrotation Yrotation Zrotation
											JOINT mixamorig:RightHandMiddle4
											{
												OFFSET -2.946640 0.000000 -0.000156
												CHANNELS 6 Xposition Yposition Zposition Xrotation Yrotation Zrotation
												End Site
												{
													OFFSET -294.664337 0.000000 -0.113670
												}
											}
										}
									}
								}
								JOINT mixamorig:RightHandRing1
								{
									OFFSET -9.103600 -0.043076 -1.865134
									CHANNELS 6 Xposition Yposition Zposition Xrotation Yrotation Zrotation
									JOINT mixamorig:RightHandRing2
									{
										OFFSET -3.379288 0.000000 -0.001055
										CHANNELS 6 Xposition Yposition Zposition Xrotation Yrotation Zrotation
										JOINT mixamorig:RightHandRing3
										{
											OFFSET -2.889687 -0.000015 0.000379
											CHANNELS 6 Xposition Yposition Zposition Xrotation Yrotation Zrotation
											JOINT mixamorig:RightHandRing4
											{
												OFFSET -2.638809 -0.000015 0.000941
												CHANNELS 6 Xposition Yposition Zposition Xrotation Yrotation Zrotation
												End Site
												{
													OFFSET -263.880371 0.000000 0.516020
												}
											}
										}
									}
								}
								JOINT mixamorig:RightHandPinky1
								{
									OFFSET -8.076683 -0.486710 -3.806280
									CHANNELS 6 Xposition Yposition Zposition Xrotation Yrotation Zrotation
									JOINT mixamorig:RightHandPinky2
									{
										OFFSET -3.600014 -0.000015 -0.003747
										CHANNELS 6 Xposition Yposition Zposition Xrotation Yrotation Zrotation
										JOINT mixamorig:RightHandPinky3
										{
											OFFSET -2.099983 0.000000 -0.005739
											CHANNELS 6 Xposition Yposition Zposition Xrotation Yrotation Zrotation
											JOINT mixamorig:RightHandPinky4
											{
												OFFSET -2.115768 -0.000031 -0.003680
												CHANNELS 6 Xposition Yposition Zposition Xrotation Yrotation Zrotation
												End Site
												{
													OFFSET -211.577087 0.000000 -0.350686
												}
											}
										}
									}
								}
							}
						}
					}
				}
				JOINT mixamorig:LeftShoulder
				{
					OFFSET 4.570447 11.014725 -2.160855
					CHANNELS 6 Xposition Yposition Zposition Xrotation Yrotation Zrotation
					JOINT mixamorig:LeftArm
					{
						OFFSET 10.592371 -0.524597 -2.232119
						CHANNELS 6 Xposition Yposition Zposition Xrotation Yrotation Zrotation
						JOINT mixamorig:LeftForeArm
						{
							OFFSET 27.841532 -0.000031 0.000026
							CHANNELS 6 Xposition Yposition Zposition Xrotation Yrotation Zrotation
							JOINT mixamorig:LeftHand
							{
								OFFSET 28.328846 -0.000061 0.000022
								CHANNELS 6 Xposition Yposition Zposition Xrotation Yrotation Zrotation
								JOINT mixamorig:LeftHandThumb1
								{
									OFFSET 2.466141 -1.576172 2.681732
									CHANNELS 6 Xposition Yposition Zposition Xrotation Yrotation Zrotation
									JOINT mixamorig:LeftHandThumb2
									{
										OFFSET 3.217812 -1.872070 1.916482
										CHANNELS 6 Xposition Yposition Zposition Xrotation Yrotation Zrotation
										JOINT mixamorig:LeftHandThumb3
										{
											OFFSET 2.656029 -1.528778 1.514513
											CHANNELS 6 Xposition Yposition Zposition Xrotation Yrotation Zrotation
											JOINT mixamorig:LeftHandThumb4
											{
												OFFSET 2.020889 -1.154053 1.115139
												CHANNELS 6 Xposition Yposition Zposition Xrotation Yrotation Zrotation
												End Site
												{
													OFFSET 190.885437 -115.081749 130.048782
												}
											}
										}
									}
								}
								JOINT mixamorig:LeftHandIndex1
								{
									OFFSET 9.109314 -0.518021 2.259871
									CHANNELS 6 Xposition Yposition Zposition Xrotation Yrotation Zrotation
									JOINT mixamorig:LeftHandIndex2
									{
										OFFSET 3.699989 0.000000 -0.000322
										CHANNELS 6 Xposition Yposition Zposition Xrotation Yrotation Zrotation
										JOINT mixamorig:LeftHandIndex3
										{
											OFFSET 2.850006 0.000000 0.000352
											CHANNELS 6 Xposition Yposition Zposition Xrotation Yrotation Zrotation
											JOINT mixamorig:LeftHandIndex4
											{
												OFFSET 2.774864 -0.000031 -0.000027
												CHANNELS 6 Xposition Yposition Zposition Xrotation Yrotation Zrotation
												End Site
												{
													OFFSET 277.486267 0.000000 -0.009857
												}
											}
										}
									}
								}
								JOINT mixamorig:LeftHandMiddle1
								{
									OFFSET 9.533394 0.000061 0.000044
									CHANNELS 6 Xposition Yposition Zposition Xrotation Yrotation Zrotation
									JOINT mixamorig:LeftHandMiddle2
									{
										OFFSET 3.699989 -0.000015 -0.000231
										CHANNELS 6 Xposition Yposition Zposition Xrotation Yrotation Zrotation
										JOINT mixamorig:LeftHandMiddle3
										{
											OFFSET 2.949997 -0.000015 -0.000059
											CHANNELS 6 Xposition Yposition Zposition Xrotation Yrotation Zrotation
											JOINT mixamorig:LeftHandMiddle4
											{
												OFFSET 2.952896 0.000031 0.000063
												CHANNELS 6 Xposition Yposition Zposition Xrotation Yrotation Zrotation
												End Site
												{
													OFFSET 295.289337 0.000000 0.022810
												}
											}
										}
									}
								}
								JOINT mixamorig:LeftHandRing1
								{
									OFFSET 9.104523 -0.042999 -1.865074
									CHANNELS 6 Xposition Yposition Zposition Xrotation Yrotation Zrotation
									JOINT mixamorig:LeftHandRing2
									{
										OFFSET 3.150009 -0.000031 0.000043
										CHANNELS 6 Xposition Yposition Zposition Xrotation Yrotation Zrotation
										JOINT mixamorig:LeftHandRing3
										{
											OFFSET 2.949982 -0.000015 0.000040
											CHANNELS 6 Xposition Yposition Zposition Xrotation Yrotation Zrotation
											JOINT mixamorig:LeftHandRing4
											{
												OFFSET 2.644348 0.000000 0.000057
												CHANNELS 6 Xposition Yposition Zposition Xrotation Yrotation Zrotation
												End Site
												{
													OFFSET 264.434631 0.000000 0.012105
												}
											}
										}
									}
								}
								JOINT mixamorig:LeftHandPinky1
								{
									OFFSET 8.077789 -0.486847 -3.806259
									CHANNELS 6 Xposition Yposition Zposition Xrotation Yrotation Zrotation
									JOINT mixamorig:LeftHandPinky2
									{
										OFFSET 3.599953 0.000031 0.014727
										CHANNELS 6 Xposition Yposition Zposition Xrotation Yrotation Zrotation
										JOINT mixamorig:LeftHandPinky3
										{
											OFFSET 2.100021 0.000015 0.007705
											CHANNELS 6 Xposition Yposition Zposition Xrotation Yrotation Zrotation
											JOINT mixamorig:LeftHandPinky4
											{
												OFFSET 2.125504 0.000031 0.007517
												CHANNELS 6 Xposition Yposition Zposition Xrotation Yrotation Zrotation
												End Site
												{
													OFFSET 212.550781 0.000000 0.625752
												}
											}
										}
									}
								}
							}
						}
					}
				}
			}
		}
	}
	JOINT mixamorig:RightUpLeg
	{
		OFFSET -8.207787 -6.751648 -1.599560
		CHANNELS 6 Xposition Yposition Zposition Xrotation Yrotation Zrotation
		JOINT mixamorig:RightLeg
		{
			OFFSET -0.000002 -44.370117 0.345942
			CHANNELS 6 Xposition Yposition Zposition Xrotation Yrotation Zrotation
			JOINT mixamorig:RightFoot
			{
				OFFSET 0.000003 -44.423679 -3.043532
				CHANNELS 6 Xposition Yposition Zposition Xrotation Yrotation Zrotation
				JOINT mixamorig:RightToeBase
				{
					OFFSET -0.000002 -8.728671 10.710558
					CHANNELS 6 Xposition Yposition Zposition Xrotation Yrotation Zrotation
					JOINT mixamorig:RightToe_End
					{
						OFFSET -0.000001 -0.000679 9.278119
						CHANNELS 6 Xposition Yposition Zposition Xrotation Yrotation Zrotation
						End Site
						{
							OFFSET 0.000000 -0.067690 927.812134
						}
					}
				}
			}
		}
	}
	JOINT mixamorig:LeftUpLeg
	{
		OFFSET 8.207793 -6.751686 -1.599556
		CHANNELS 6 Xposition Yposition Zposition Xrotation Yrotation Zrotation
		JOINT mixamorig:LeftLeg
		{
			OFFSET -0.000004 -44.370014 0.346954
			CHANNELS 6 Xposition Yposition Zposition Xrotation Yrotation Zrotation
			JOINT mixamorig:LeftFoot
			{
				OFFSET -0.000001 -44.423672 -3.044401
				CHANNELS 6 Xposition Yposition Zposition Xrotation Yrotation Zrotation
				JOINT mixamorig:LeftToeBase
				{
					OFFSET -0.000002 -8.728669 10.710558
					CHANNELS 6 Xposition Yposition Zposition Xrotation Yrotation Zrotation
					JOINT mixamorig:LeftToe_End
					{
						OFFSET -0.000003 -0.000679 9.278133
						CHANNELS 6 Xposition Yposition Zposition Xrotation Yrotation Zrotation
						End Site
						{
							OFFSET 0.000000 -0.068021 927.813477
						}
					}
				}
			}
		}
	}
}
MOTION
Frames: 3
Frame Time: 0.033333
0.000006 104.270477 1.554256 0.000010 0.000003 -0.000113 -0.000005 10.181587 0.131522 0.000001 -0.000003 0.000084 -0.000000 9.893967 -1.470711 0.000001 0.000000 -0.000000 -0.000000 9.220802 -1.370642 0.000000 -0.000000 -0.000000 0.000001 16.740433 -2.049030 0.000000 -0.000000 -0.000000 0.000000 9.617859 1.685014 0.000000 0.000000 0.000000 0.000002 22.037384 7.501101 0.000000 -0.000000 0.000000 -4.569968 11.014880 -2.160881 0.000008 0.000001 -0.000038 -10.592875 -0.524752 -2.231915 75.151752 25.647159 -19.868517 -27.841511 0.000008 0.000534 -52.198676 109.542478 69.498855 -28.328842 0.000021 0.000022 -0.000319 -0.000046 0.000009 -2.464463 -1.573728 2.682327 -49.685764 -171.426888 -14.862679 -3.215272 -1.872594 1.924669 155.962042 30.169806 -5.489380 -2.654946 -1.527904 1.513090 147.866082 26.747871 -37.159173 -2.018827 -1.151981 1.108074 -0.000004 -0.000007 0.000002 -9.108398 -0.517555 2.260119 96.792305 17.760203 -20.011539 -3.700079 0.000306 0.001502 93.890348 14.088714 -15.042961 -2.850078 0.000362 -0.000291 92.479778 11.197591 -11.688697 -2.772180 -0.000015 -0.000019 0.000001 -0.000001 0.000001 -9.532598 0.000255 0.000175 82.040551 17.107578 -15.034933 -3.700048 0.000317 0.003899 80.443653 10.684630 -8.964512 -2.950072 0.000322 -0.001891 82.892392 10.633279 -9.389452 -2.946627 0.000000 -0.000162 0.000001 -0.000002 0.000001 -9.103701 -0.042764 -1.864906 81.098210 17.081979 -14.605200 -3.379313 0.000322 -0.000883 79.945336 5.510585 -4.634298 -2.889735 0.000347 0.000585 86.360188 3.434347 -3.263553 -2.638830 -0.000014 0.000946 0.000002 0.000000 -0.000001 -8.076756 -0.486380 -3.806068 79.815186 16.095529 -13.362203 -3.600013 0.000285 -0.003566 81.876018 4.866469 -3.928288 -2.100002 0.000326 -0.005522 83.936775 2.846486 -2.370924 -2.115778 -0.000026 -0.003680 0.000004 -0.000001 -0.000005 4.570446 11.014691 -2.160851 -0.000018 0.000010 -0.000021 10.592382 -0.524488 -2.232338 74.880088 -5.771532 4.420706 27.841827 0.000076 -0.000210 96.356129 -69.226884 75.289906 28.328856 -0.000029 0.000025 0.000020 -0.000089 -0.000000 2.466255 -1.576069 2.681837 -172.371858 12.843507 80.436918 3.217875 -1.871868 1.916419 164.828843 -20.971611 43.003756 2.656109 -1.528668 1.514489 137.755913 -28.081867 60.092899 2.020895 -1.154082 1.115136 -0.000001 0.000002 0.000004 9.109381 -0.517900 2.259737 74.495644 -20.035518 15.289780 3.700045 0.000103 -0.000460 73.234982 -18.816997 14.053631 2.850042 0.000127 0.000224 69.672226 -15.587999 10.882135 2.774885 -0.000011 -0.000024 -0.000003 0.000001 0.000001 9.533477 0.000172 -0.000085 75.923843 -19.773647 15.480400 3.700040 0.000135 -0.000379 77.921940 -15.766662 12.775383 2.950062 0.000141 -0.000194 77.944473 -16.852407 13.669779 2.952873 -0.000016 0.000064 -0.000000 0.000001 0.000000 9.104588 -0.042885 -1.865209 74.957706 -18.102575 13.929166 3.150063 0.000150 -0.000106 77.683867 -13.987749 11.284492 2.949999 0.000154 -0.000088 80.142339 -13.735288 11.572078 2.644322 0.000043 0.000058 0.000001 -0.000000 -0.000002 8.077837 -0.486757 -3.806420 68.525977 -19.527694 13.795631 3.599995 0.000144 0.014590 68.274407 -16.724019 11.749679 2.100048 0.000149 0.007562 71.477568 -14.803687 11.045288 2.125495 -0.000013 0.007513 -0.000002 0.000001 -0.000003 -8.207786 -6.751667 -1.599560 -0.077001 -0.000003 0.000080 -0.000002 -44.370110 0.345938 0.153719 -0.000000 -0.000000 0.000000 -44.423679 -3.043532 -0.076700 0.000000 -0.000002 -0.000006 -8.728667 10.710559 -0.000009 -0.000000 -0.000000 -0.000001 -0.000679 9.278123 0.000000 -0.000000 -0.000000 8.207792 -6.751710 -1.599556 -0.074518 -0.000003 0.000081 -0.000002 -44.370014 0.346960 0.148822 0.000002 0.000000 -0.000001 -44.423664 -3.044403 -0.074314 0.000000 -0.000002 -0.000004 -8.728671 10.710558 0.000007 -0.000000 -0.000000 0.000000 -0.000680 9.278137 -0.000000 0.000000 -0.000001 
0.000006 104.270477 1.554256 0.000010 0.000003 -0.000113 -0.000005 10.181587 0.131522 0.000001 -0.000003 0.000084 -0.000000 9.893967 -1.470711 0.000001 0.000000 -0.000000 -0.000000 9.220802 -1.370642 0.000000 -0.000000 -0.000000 0.000001 16.740433 -2.049030 0.000000 -0.000000 -0.000000 0.000000 9.617859 1.685014 0.000000 0.000000 0.000000 0.000002 22.037384 7.501101 0.000000 -0.000000 0.000000 -4.569968 11.014880 -2.160881 0.000008 0.000001 -0.000038 -10.592871 -0.524787 -2.231875 75.282605 33.829760 -26.399520 -27.841507 -0.000006 0.000552 -49.248143 106.881095 63.438223 -28.328810 -0.000007 0.000028 -0.000321 -0.000044 0.000006 -2.464419 -1.573730 2.682324 -49.700640 -169.491499 -14.836281 -3.215280 -1.872577 1.924653 153.643002 31.155840 1.709320 -2.654960 -1.527856 1.513065 144.456903 27.656894 -34.023501 -2.018826 -1.152009 1.108064 -0.000000 0.000000 0.000002 -9.108377 -0.517557 2.260108 94.958529 16.352159 -17.860320 -3.700057 0.000308 0.001497 92.956580 14.598481 -15.337810 -2.850085 0.000361 -0.000272 92.555572 12.372212 -12.931076 -2.772149 -0.000015 -0.000017 0.000002 0.000001 0.000000 -9.532574 0.000264 0.000174 81.246159 14.579575 -12.645375 -3.700056 0.000310 0.003899 80.510862 8.749305 -7.335073 -2.950054 0.000328 -0.001869 83.744178 10.553083 -9.458408 -2.946630 0.000000 -0.000152 0.000001 -0.000000 -0.000001 -9.103689 -0.042753 -1.864923 81.758573 15.298695 -13.223945 -3.379305 0.000327 -0.000883 80.676043 3.567706 -3.043531 -2.889748 0.000354 0.000591 86.428865 3.699732 -3.517002 -2.638817 -0.000017 0.000941 -0.000002 -0.000002 0.000000 -8.076733 -0.486382 -3.806062 79.355679 15.807580 -13.014680 -3.600017 0.000268 -0.003580 82.077420 4.503218 -3.627554 -2.100002 0.000338 -0.005542 83.745400 2.829270 -2.347590 -2.115776 -0.000017 -0.003677 -0.000000 -0.000001 -0.000006 4.570446 11.014691 -2.160851 -0.000018 0.000010 -0.000021 10.592378 -0.524492 -2.232334 75.056027 -3.550064 2.727269 27.841822 0.000076 -0.000206 96.920951 -71.403986 78.093255 28.328825 -0.000029 0.000021 0.000018 -0.000089 -0.000000 2.466248 -1.575907 2.681769 -166.066515 -12.799894 40.310038 3.217873 -1.871906 1.916478 162.745909 -15.884471 62.826757 2.656096 -1.528717 1.514518 138.517794 -27.558849 66.883746 2.020871 -1.154059 1.115142 0.000002 0.000001 0.000004 9.109373 -0.517898 2.259747 76.243004 -21.861013 17.224094 3.700039 0.000127 -0.000461 74.943711 -13.941885 10.722136 2.850040 0.000171 0.000210 73.794163 -10.149947 7.627725 2.774893 -0.000013 -0.000021 -0.000001 -0.000002 -0.000002 9.533461 0.000172 -0.000085 76.202351 -20.795450 16.368031 3.700029 0.000155 -0.000373 79.402213 -11.179415 9.288631 2.950024 0.000160 -0.000203 79.390738 -10.403545 8.645541 2.952848 -0.000016 0.000064 0.000002 0.000001 0.000001 9.104584 -0.042878 -1.865222 76.600271 -20.131242 15.961986 3.150050 0.000175 -0.000081 80.326160 -12.795600 10.813458 2.950020 0.000151 -0.000093 80.382365 -10.057143 8.503998 2.644336 0.000030 0.000055 0.000001 0.000002 0.000001 8.077839 -0.486761 -3.806395 69.493063 -21.339927 15.330001 3.600008 0.000134 0.014575 68.861701 -17.716092 12.570908 2.100033 0.000167 0.007555 70.639982 -12.918897 9.523840 2.125505 -0.000016 0.007518 0.000006 -0.000000 -0.000000 -8.207786 -6.751667 -1.599560 -0.077001 -0.000003 0.000080 -0.000002 -44.370110 0.345938 0.153719 -0.000000 -0.000000 0.000000 -44.423679 -3.043532 -0.076700 0.000000 -0.000002 -0.000006 -8.728667 10.710559 -0.000009 -0.000000 -0.000000 -0.000001 -0.000679 9.278123 0.000000 -0.000000 -0.000000 8.207792 -6.751710 -1.599556 -0.074518 -0.000003 0.000081 -0.000002 -44.370014 0.346960 0.148822 0.000002 0.000000 -0.000001 -44.423664 -3.044403 -0.074314 0.000000 -0.000002 -0.000004 -8.728671 10.710558 0.000007 -0.000000 -0.000000 0.000000 -0.000680 9.278137 -0.000000 0.000000 -0.000001 
0.000006 104.270477 1.554256 0.000010 0.000003 -0.000113 -0.000005 10.181587 0.131522 0.000001 -0.000003 0.000084 -0.000000 9.893967 -1.470711 0.000001 0.000000 -0.000000 -0.000000 9.220802 -1.370642 0.000000 -0.000000 -0.000000 0.000001 16.740433 -2.049030 0.000000 -0.000000 -0.000000 0.000000 9.617859 1.685014 0.000000 0.000000 0.000000 0.000002 22.037384 7.501101 0.000000 -0.000000 0.000000 -4.569968 11.014880 -2.160881 0.000008 0.000001 -0.000038 -10.592856 -0.524801 -2.231835 75.235387 42.501781 -33.365081 -27.841518 0.000019 0.000540 -48.136124 103.452531 59.027799 -28.328831 0.000004 0.000024 -0.000318 -0.000043 0.000005 -2.464421 -1.573766 2.682335 -48.471527 -167.764254 -11.289050 -3.215280 -1.872593 1.924655 153.677221 31.305790 2.648700 -2.654966 -1.527868 1.513074 144.467640 27.681763 -33.658984 -2.018838 -1.151998 1.108054 -0.000003 0.000000 0.000004 -9.108373 -0.517564 2.260119 95.088589 16.762070 -18.346836 -3.700083 0.000307 0.001501 92.697265 15.370495 -16.076952 -2.850077 0.000354 -0.000265 92.913310 13.195673 -13.876741 -2.772181 -0.000001 -0.000022 0.000001 -0.000005 -0.000002 -9.532595 0.000248 0.000160 81.428006 14.529643 -12.642477 -3.700038 0.000327 0.003907 80.240837 8.762320 -7.311155 -2.950047 0.000327 -0.001846 83.815492 10.980254 -9.854214 -2.946629 0.000004 -0.000152 -0.000002 -0.000001 0.000002 -9.103684 -0.042768 -1.864912 82.276110 14.975687 -13.060845 -3.379306 0.000316 -0.000883 81.122683 3.375277 -2.902855 -2.889719 0.000348 0.000574 86.715003 4.107700 -3.920160 -2.638819 -0.000015 0.000938 0.000005 -0.000002 0.000001 -8.076731 -0.486390 -3.806057 80.008344 15.765229 -13.129300 -3.600021 0.000269 -0.003559 82.336469 4.546664 -3.681963 -2.100019 0.000324 -0.005531 83.873015 3.234779 -2.716010 -2.115763 -0.000041 -0.003676 -0.000003 0.000002 -0.000005 4.570446 11.014691 -2.160851 -0.000018 0.000010 -0.000021 10.592423 -0.524464 -2.232379 74.331753 -21.201826 16.151430 27.841816 0.000063 -0.000191 98.390890 -74.149176 82.386732 28.328840 -0.000028 0.000025 0.000021 -0.000088 -0.000000 2.466201 -1.575850 2.681775 -164.089120 -19.039564 29.596921 3.217865 -1.871931 1.916469 160.097134 -15.263620 69.374163 2.656119 -1.528688 1.514505 137.472174 -28.076968 65.171896 2.020883 -1.154068 1.115152 0.000002 0.000003 0.000006 9.109365 -0.517897 2.259746 77.144637 -21.292034 17.041009 3.700042 0.000146 -0.000470 76.024015 -12.988467 10.182362 2.850031 0.000162 0.000212 74.822639 -9.509649 7.279618 2.774894 -0.000046 -0.000020 0.000000 0.000004 -0.000000 9.533463 0.000171 -0.000085 76.384109 -20.068312 15.841900 3.700035 0.000164 -0.000394 81.027511 -10.258449 8.769878 2.950036 0.000152 -0.000210 81.357600 -9.600341 8.258917 2.952888 -0.000030 0.000067 0.000001 -0.000002 0.000000 9.104574 -0.042877 -1.865216 76.701638 -19.537609 15.515716 3.150047 0.000179 -0.000093 80.761591 -12.361257 10.525957 2.950015 0.000167 -0.000091 80.455032 -9.829589 8.322004 2.644317 0.000031 0.000057 -0.000000 0.000000 0.000000 8.077830 -0.486770 -3.806379 66.987490 -20.995568 14.401000 3.600002 0.000145 0.014584 67.807338 -17.602974 12.249530 2.100043 0.000143 0.007546 70.118490 -13.255022 9.671797 2.125490 -0.000027 0.007517 -0.000002 0.000002 0.000002 -8.207786 -6.751667 -1.599560 -0.077001 -0.000003 0.000080 -0.000002 -44.370110 0.345938 0.153719 -0.000000 -0.000000 0.000000 -44.423679 -3.043532 -0.076700 0.000000 -0.000002 -0.000006 -8.728667 10.710559 -0.000009 -0.000000 -0.000000 -0.000001 -0.000679 9.278123 0.000000 -0.000000 -0.000000 8.207792 -6.751710 -1.599556 -0.074518 -0.000003 0.000081 -0.000002 -44.370014 0.346960 0.148822 0.000002 0.000000 -0.000001 -44.423664 -3.044403 -0.074314 0.000000 -0.000002 -0.000004 -8.728671 10.710558 0.000007 -0.000000 -0.000000 0.000000 -0.000680 9.278137 -0.000000 0.000000 -0.000001 
